<mxfile host="Electron" agent="Mozilla/5.0 (Macintosh; Intel Mac OS X 10_15_7) AppleWebKit/537.36 (KHTML, like Gecko) draw.io/26.0.3 Chrome/130.0.6723.137 Electron/33.2.1 Safari/537.36" version="26.0.3">
  <diagram name="Page-1" id="bREn28yVSQTaM7EZw4T_">
    <mxGraphModel dx="1026" dy="663" grid="1" gridSize="10" guides="1" tooltips="1" connect="1" arrows="1" fold="1" page="1" pageScale="1" pageWidth="850" pageHeight="1100" math="0" shadow="0">
      <root>
        <mxCell id="0" />
        <mxCell id="1" parent="0" />
        <mxCell id="MFuv2lPloSx03c4N6PA7-13" style="edgeStyle=orthogonalEdgeStyle;rounded=0;orthogonalLoop=1;jettySize=auto;html=1;exitX=0.5;exitY=1;exitDx=0;exitDy=0;" edge="1" parent="1" source="MFuv2lPloSx03c4N6PA7-1" target="MFuv2lPloSx03c4N6PA7-6">
          <mxGeometry relative="1" as="geometry" />
        </mxCell>
        <mxCell id="MFuv2lPloSx03c4N6PA7-1" value="MMD(g(Xm), g(s); k)" style="rounded=0;whiteSpace=wrap;html=1;" vertex="1" parent="1">
          <mxGeometry x="160" y="250" width="120" height="60" as="geometry" />
        </mxCell>
        <mxCell id="MFuv2lPloSx03c4N6PA7-9" style="edgeStyle=orthogonalEdgeStyle;rounded=0;orthogonalLoop=1;jettySize=auto;html=1;exitX=0.5;exitY=1;exitDx=0;exitDy=0;entryX=0.5;entryY=0;entryDx=0;entryDy=0;" edge="1" parent="1" source="MFuv2lPloSx03c4N6PA7-3" target="MFuv2lPloSx03c4N6PA7-5">
          <mxGeometry relative="1" as="geometry" />
        </mxCell>
        <mxCell id="MFuv2lPloSx03c4N6PA7-3" value="s" style="rounded=1;whiteSpace=wrap;html=1;" vertex="1" parent="1">
          <mxGeometry x="340" y="10" width="120" height="60" as="geometry" />
        </mxCell>
        <mxCell id="MFuv2lPloSx03c4N6PA7-12" style="edgeStyle=orthogonalEdgeStyle;rounded=0;orthogonalLoop=1;jettySize=auto;html=1;exitX=0.5;exitY=1;exitDx=0;exitDy=0;" edge="1" parent="1" source="MFuv2lPloSx03c4N6PA7-4" target="MFuv2lPloSx03c4N6PA7-6">
          <mxGeometry relative="1" as="geometry" />
        </mxCell>
        <mxCell id="MFuv2lPloSx03c4N6PA7-4" value="MMD(g(Ym), g(s); k)" style="rounded=0;whiteSpace=wrap;html=1;" vertex="1" parent="1">
          <mxGeometry x="530" y="250" width="120" height="60" as="geometry" />
        </mxCell>
        <mxCell id="MFuv2lPloSx03c4N6PA7-10" style="edgeStyle=orthogonalEdgeStyle;rounded=0;orthogonalLoop=1;jettySize=auto;html=1;exitX=0.5;exitY=1;exitDx=0;exitDy=0;" edge="1" parent="1" source="MFuv2lPloSx03c4N6PA7-5" target="MFuv2lPloSx03c4N6PA7-1">
          <mxGeometry relative="1" as="geometry" />
        </mxCell>
        <mxCell id="MFuv2lPloSx03c4N6PA7-11" style="edgeStyle=orthogonalEdgeStyle;rounded=0;orthogonalLoop=1;jettySize=auto;html=1;exitX=0.5;exitY=1;exitDx=0;exitDy=0;" edge="1" parent="1" source="MFuv2lPloSx03c4N6PA7-5" target="MFuv2lPloSx03c4N6PA7-4">
          <mxGeometry relative="1" as="geometry" />
        </mxCell>
        <mxCell id="MFuv2lPloSx03c4N6PA7-5" value="g(s)" style="rounded=0;whiteSpace=wrap;html=1;" vertex="1" parent="1">
          <mxGeometry x="340" y="140" width="120" height="60" as="geometry" />
        </mxCell>
        <mxCell id="MFuv2lPloSx03c4N6PA7-8" value="p" style="edgeStyle=orthogonalEdgeStyle;rounded=0;orthogonalLoop=1;jettySize=auto;html=1;exitX=0.5;exitY=1;exitDx=0;exitDy=0;entryX=0.5;entryY=0;entryDx=0;entryDy=0;" edge="1" parent="1" source="MFuv2lPloSx03c4N6PA7-6" target="MFuv2lPloSx03c4N6PA7-7">
          <mxGeometry relative="1" as="geometry" />
        </mxCell>
        <mxCell id="MFuv2lPloSx03c4N6PA7-6" value="Î¦" style="rounded=0;whiteSpace=wrap;html=1;" vertex="1" parent="1">
          <mxGeometry x="340" y="380" width="120" height="60" as="geometry" />
        </mxCell>
        <mxCell id="MFuv2lPloSx03c4N6PA7-7" value="f(s;p;a)" style="rounded=0;whiteSpace=wrap;html=1;" vertex="1" parent="1">
          <mxGeometry x="340" y="520" width="120" height="60" as="geometry" />
        </mxCell>
      </root>
    </mxGraphModel>
  </diagram>
</mxfile>
